# xmcd CD database file
#
# Track frame offsets:
#	150
#	14868
#	30343
#	46646
#	63674
#	77434
#	91054
#	106823
#	125680
#	142185
#	157254
#	172735
#	191927
#
# Disc length: 2779 seconds
#
# Revision: 0
# Processed by: cddbd v1.5.2PL0 Copyright (c) Steve Scherf et al.
# Submitted via: CDex 1.79
#
DISCID=aa0ad90d
DTITLE=Hannah McNeil - Hannah McNeil
DYEAR=2013
DGENRE=Country
TTITLE0=What Am I Getting Up For
TTITLE1=I Need A Break
TTITLE2=I Gotta Leave You For Me
TTITLE3=I Want You
TTITLE4=Peace Of Mind
TTITLE5=Walking Away A Winner
TTITLE6=Celebrate Life
TTITLE7=Real Love
TTITLE8=Chasin' Wildfires
TTITLE9=Let Go, Let God
TTITLE10=Doesn't Have To Be This Way
TTITLE11=I Am Strong
TTITLE12=Peace UP!
EXTD=YEAR: 2013
EXTT0=
EXTT1=
EXTT2=
EXTT3=
EXTT4=
EXTT5=
EXTT6=
EXTT7=
EXTT8=
EXTT9=
EXTT10=
EXTT11=
EXTT12=
PLAYORDER=
